# xmcd CD database file
#
# Track frame offsets:
#	150
#	15937
#	27516
#	45519
#	58917
#	76827
#	93453
#	112726
#	125844
#	144586
#	163896
#	185900
#	203535
#	220015
#
# Disc length: 3169 seconds
#
# Revision: 0
# Processed by: cddbd v1.5.2PL0 Copyright (c) Steve Scherf et al.
# Submitted via: CDex 1.51
#
DISCID=be0c5f0e
DTITLE=Grupa Furmana - Niemartfka
DYEAR=2008
DGENRE=Country
TTITLE0=Niemartfka
TTITLE1=Jest juz pozno
TTITLE2=Wino
TTITLE3=Syrena (jak w Wilkowicach straz zakladano)
TTITLE4=Tu, tu
TTITLE5=Rododendron
TTITLE6=Nie umiem wygnac cie z mojego lba
TTITLE7=Hol! Hol!
TTITLE8=Ryzatka
TTITLE9=Highway home
TTITLE10=110 in shade
TTITLE11=Jeden slad - jedna Milosc
TTITLE12=O pociagu i niewidzialnym panu
TTITLE13=Z calego serca
EXTD=YEAR: 2008
EXTT0=
EXTT1=
EXTT2=
EXTT3=
EXTT4=
EXTT5=
EXTT6=
EXTT7=
EXTT8=
EXTT9=
EXTT10=
EXTT11=
EXTT12=
EXTT13=
PLAYORDER=
